<?xml version="1.0" encoding="UTF-8"?>
<svg xmlns="http://www.w3.org/2000/svg" xmlns:xlink="http://www.w3.org/1999/xlink" viewBox="0 0 24 24" version="1.1" width="50px" height="50px">
<g id="surface1">
<path style=" " d="M 12 2 C 6.5 2 2 6.5 2 12 C 2 17.5 6.5 22 12 22 C 17.5 22 22 17.5 22 12 C 22 6.5 17.5 2 12 2 Z M 16.300781 17 C 16.101563 17 16 16.898438 15.800781 16.800781 C 14.300781 15.898438 12.398438 15.398438 10.398438 15.398438 C 9.300781 15.398438 8.101563 15.601563 7.101563 15.800781 C 6.898438 15.800781 6.699219 15.898438 6.601563 15.898438 C 6.199219 15.898438 5.898438 15.601563 5.898438 15.199219 C 5.898438 14.800781 6.101563 14.5 6.5 14.5 C 7.800781 14.199219 9.101563 14 10.5 14 C 12.800781 14 14.898438 14.601563 16.699219 15.601563 C 16.898438 15.800781 17.101563 15.898438 17.101563 16.300781 C 16.898438 16.800781 16.601563 17 16.300781 17 Z M 17.398438 14.199219 C 17.199219 14.199219 17 14.101563 16.800781 14 C 15.101563 12.898438 12.699219 12.300781 10.101563 12.300781 C 8.800781 12.300781 7.601563 12.5 6.699219 12.699219 C 6.5 12.800781 6.398438 12.800781 6.199219 12.800781 C 5.699219 12.800781 5.398438 12.398438 5.398438 12 C 5.398438 11.5 5.601563 11.300781 6.101563 11.101563 C 7.300781 10.800781 8.5 10.5 10.199219 10.5 C 13 10.5 15.601563 11.199219 17.800781 12.5 C 18.101563 12.699219 18.300781 13 18.300781 13.300781 C 18.199219 13.800781 17.898438 14.199219 17.398438 14.199219 Z M 18.699219 11 C 18.5 11 18.398438 10.898438 18.101563 10.800781 C 16.101563 9.699219 13.199219 9 10.398438 9 C 9 9 7.5 9.199219 6.199219 9.5 C 6 9.5 5.898438 9.601563 5.601563 9.601563 C 5 9.699219 4.601563 9.199219 4.601563 8.601563 C 4.601563 8 4.898438 7.699219 5.300781 7.601563 C 6.898438 7.199219 8.601563 7 10.398438 7 C 13.5 7 16.699219 7.699219 19.199219 9 C 19.5 9.199219 19.800781 9.5 19.800781 10 C 19.699219 10.601563 19.300781 11 18.699219 11 Z "/>
</g>
</svg>
